<svg aria-hidden="true" style="position: absolute; width: 0; height: 0; overflow: hidden;" version="1.1" xmlns="http://www.w3.org/2000/svg" xmlns:xlink="http://www.w3.org/1999/xlink">
<defs>
<symbol id="icon-compass" viewBox="0 0 32 32">
<title>compass</title>
<path d="M16.5 29v0c-6.904 0-12.5-5.596-12.5-12.5s5.596-12.5 12.5-12.5c6.904 0 12.5 5.596 12.5 12.5s-5.596 12.5-12.5 12.5zM16.5 28c6.351 0 11.5-5.149 11.5-11.5s-5.149-11.5-11.5-11.5c-6.351 0-11.5 5.149-11.5 11.5s5.149 11.5 11.5 11.5v0zM18.268 18.268c-1.768 1.768-8.485 4.95-8.485 4.95s3.182-6.718 4.95-8.485c1.768-1.768 8.485-4.95 8.485-4.95s-3.182 6.717-4.95 8.485v0zM15.439 17.561c0.586 0.586 1.536 0.586 2.121 0s0.586-1.536 0-2.121c-0.586-0.586-1.536-0.586-2.121 0s-0.586 1.536 0 2.121v0zM16.5 6c-0.276 0-0.5 0.215-0.5 0.49v3.019c0 0.271 0.232 0.49 0.5 0.49 0.276 0 0.5-0.215 0.5-0.49v-3.019c0-0.271-0.232-0.49-0.5-0.49v0zM27.043 16.543c0-0.276-0.215-0.5-0.49-0.5h-3.019c-0.271 0-0.49 0.232-0.49 0.5 0 0.276 0.215 0.5 0.49 0.5h3.019c0.271 0 0.49-0.232 0.49-0.5v0zM16.5 27.087c0.276 0 0.5-0.215 0.5-0.49v-3.019c0-0.271-0.232-0.49-0.5-0.49-0.276 0-0.5 0.215-0.5 0.49v3.019c0 0.271 0.232 0.49 0.5 0.49v0zM5.957 16.543c0 0.276 0.215 0.5 0.49 0.5h3.019c0.271 0 0.49-0.232 0.49-0.5 0-0.276-0.215-0.5-0.49-0.5h-3.019c-0.271 0-0.49 0.232-0.49 0.5v0z"></path>
</symbol>
<symbol id="icon-envelope" viewBox="0 0 24 24">
<title>envelope</title>
<path d="M1 6v13h21v-13h-21zM3 17v-7.866l15.544 7.866h-15.544zM20 15.949l-6.378-3.407 6.378-3.408v6.815zM12.088 11.408l-6.706-3.408h13.195l-6.489 3.408z"></path>
</symbol>
<symbol id="icon-medium" viewBox="0 0 32 32">
<title>medium</title>
<path d="M0 0v32h32v-32h-32zM26.584 7.581l-1.716 1.645c-0.121 0.092-0.198 0.237-0.198 0.399 0 0.030 0.003 0.059 0.007 0.087l-0-0.003v12.089c-0.004 0.025-0.007 0.053-0.007 0.083 0 0.162 0.077 0.306 0.196 0.398l0.001 0.001 1.676 1.645v0.361h-8.429v-0.36l1.736-1.687c0.171-0.171 0.171-0.22 0.171-0.48v-9.773l-4.827 12.26h-0.653l-5.621-12.26v8.217c-0.007 0.046-0.010 0.099-0.010 0.152 0 0.307 0.122 0.586 0.321 0.791l-0-0 2.259 2.739v0.361h-6.403v-0.36l2.26-2.74c0.189-0.196 0.306-0.464 0.306-0.759 0-0.065-0.006-0.129-0.017-0.19l0.001 0.007v-9.501c0.003-0.025 0.004-0.055 0.004-0.085 0-0.245-0.106-0.465-0.274-0.617l-0.001-0.001-2.008-2.419v-0.36h6.232l4.817 10.564 4.235-10.565h5.941v0.361z"></path>
</symbol>
<symbol id="icon-arrow-bold-down" viewBox="0 0 20 20">
<title>arrow-bold-down</title>
<path d="M2.5 10h3.5v-7h8v7h3.5l-7.5 7.5-7.5-7.5z"></path>
</symbol>
<symbol id="icon-location2" viewBox="0 0 32 32">
<title>location2</title>
<path d="M16 0c-5.523 0-10 4.477-10 10 0 10 10 22 10 22s10-12 10-22c0-5.523-4.477-10-10-10zM16 16.125c-3.383 0-6.125-2.742-6.125-6.125s2.742-6.125 6.125-6.125 6.125 2.742 6.125 6.125-2.742 6.125-6.125 6.125zM12.125 10c0-2.14 1.735-3.875 3.875-3.875s3.875 1.735 3.875 3.875c0 2.14-1.735 3.875-3.875 3.875s-3.875-1.735-3.875-3.875z"></path>
</symbol>
<symbol id="icon-facebook" viewBox="0 0 32 32">
<title>facebook</title>
<path d="M19 6h5v-6h-5c-3.86 0-7 3.14-7 7v3h-4v6h4v16h6v-16h5l1-6h-6v-3c0-0.542 0.458-1 1-1z"></path>
</symbol>
<symbol id="icon-instagram" viewBox="0 0 32 32">
<title>instagram</title>
<path d="M16 2.881c4.275 0 4.781 0.019 6.462 0.094 1.563 0.069 2.406 0.331 2.969 0.55 0.744 0.288 1.281 0.638 1.837 1.194 0.563 0.563 0.906 1.094 1.2 1.838 0.219 0.563 0.481 1.412 0.55 2.969 0.075 1.688 0.094 2.194 0.094 6.463s-0.019 4.781-0.094 6.463c-0.069 1.563-0.331 2.406-0.55 2.969-0.288 0.744-0.637 1.281-1.194 1.837-0.563 0.563-1.094 0.906-1.837 1.2-0.563 0.219-1.413 0.481-2.969 0.55-1.688 0.075-2.194 0.094-6.463 0.094s-4.781-0.019-6.463-0.094c-1.563-0.069-2.406-0.331-2.969-0.55-0.744-0.288-1.281-0.637-1.838-1.194-0.563-0.563-0.906-1.094-1.2-1.837-0.219-0.563-0.481-1.413-0.55-2.969-0.075-1.688-0.094-2.194-0.094-6.463s0.019-4.781 0.094-6.463c0.069-1.563 0.331-2.406 0.55-2.969 0.288-0.744 0.638-1.281 1.194-1.838 0.563-0.563 1.094-0.906 1.838-1.2 0.563-0.219 1.412-0.481 2.969-0.55 1.681-0.075 2.188-0.094 6.463-0.094zM16 0c-4.344 0-4.887 0.019-6.594 0.094-1.7 0.075-2.869 0.35-3.881 0.744-1.056 0.412-1.95 0.956-2.837 1.85-0.894 0.888-1.438 1.781-1.85 2.831-0.394 1.019-0.669 2.181-0.744 3.881-0.075 1.713-0.094 2.256-0.094 6.6s0.019 4.887 0.094 6.594c0.075 1.7 0.35 2.869 0.744 3.881 0.413 1.056 0.956 1.95 1.85 2.837 0.887 0.887 1.781 1.438 2.831 1.844 1.019 0.394 2.181 0.669 3.881 0.744 1.706 0.075 2.25 0.094 6.594 0.094s4.888-0.019 6.594-0.094c1.7-0.075 2.869-0.35 3.881-0.744 1.050-0.406 1.944-0.956 2.831-1.844s1.438-1.781 1.844-2.831c0.394-1.019 0.669-2.181 0.744-3.881 0.075-1.706 0.094-2.25 0.094-6.594s-0.019-4.887-0.094-6.594c-0.075-1.7-0.35-2.869-0.744-3.881-0.394-1.063-0.938-1.956-1.831-2.844-0.887-0.887-1.781-1.438-2.831-1.844-1.019-0.394-2.181-0.669-3.881-0.744-1.712-0.081-2.256-0.1-6.6-0.1v0z"></path>
<path d="M16 7.781c-4.537 0-8.219 3.681-8.219 8.219s3.681 8.219 8.219 8.219 8.219-3.681 8.219-8.219c0-4.537-3.681-8.219-8.219-8.219zM16 21.331c-2.944 0-5.331-2.387-5.331-5.331s2.387-5.331 5.331-5.331c2.944 0 5.331 2.387 5.331 5.331s-2.387 5.331-5.331 5.331z"></path>
<path d="M26.462 7.456c0 1.060-0.859 1.919-1.919 1.919s-1.919-0.859-1.919-1.919c0-1.060 0.859-1.919 1.919-1.919s1.919 0.859 1.919 1.919z"></path>
</symbol>
<symbol id="icon-dribbble" viewBox="0 0 32 32">
<title>dribbble</title>
<path d="M16 32c-8.825 0-16-7.175-16-16s7.175-16 16-16c8.825 0 16 7.175 16 16s-7.175 16-16 16v0zM29.494 18.188c-0.469-0.15-4.231-1.269-8.512-0.581 1.788 4.912 2.512 8.912 2.656 9.744 3.063-2.075 5.25-5.356 5.856-9.163v0zM21.337 28.6c-0.206-1.2-0.994-5.375-2.913-10.363-0.031 0.012-0.063 0.019-0.087 0.031-7.713 2.688-10.481 8.031-10.725 8.531 2.319 1.806 5.231 2.887 8.387 2.887 1.894 0 3.7-0.387 5.338-1.087v0zM5.844 25.156c0.313-0.531 4.063-6.738 11.106-9.019 0.175-0.056 0.356-0.113 0.538-0.162-0.344-0.775-0.719-1.556-1.106-2.319-6.819 2.044-13.444 1.956-14.044 1.95-0.006 0.137-0.006 0.275-0.006 0.419 0 3.506 1.331 6.712 3.512 9.131v0zM2.625 13.219c0.612 0.006 6.244 0.031 12.637-1.662-2.262-4.025-4.706-7.412-5.069-7.906-3.825 1.806-6.688 5.331-7.569 9.569v0zM12.8 2.731c0.375 0.506 2.863 3.888 5.1 8 4.863-1.819 6.919-4.588 7.163-4.938-2.413-2.144-5.587-3.444-9.063-3.444-1.1 0.006-2.175 0.138-3.2 0.381v0zM26.581 7.381c-0.288 0.388-2.581 3.325-7.631 5.388 0.319 0.65 0.625 1.313 0.906 1.981 0.1 0.238 0.2 0.469 0.294 0.706 4.55-0.569 9.069 0.344 9.519 0.438-0.031-3.225-1.188-6.188-3.087-8.512v0z"></path>
</symbol>
<symbol id="icon-linkedin2" viewBox="0 0 32 32">
<title>linkedin2</title>
<path d="M12 12h5.535v2.837h0.079c0.77-1.381 2.655-2.837 5.464-2.837 5.842 0 6.922 3.637 6.922 8.367v9.633h-5.769v-8.54c0-2.037-0.042-4.657-3.001-4.657-3.005 0-3.463 2.218-3.463 4.509v8.688h-5.767v-18z"></path>
<path d="M2 12h6v18h-6v-18z"></path>
<path d="M8 7c0 1.657-1.343 3-3 3s-3-1.343-3-3c0-1.657 1.343-3 3-3s3 1.343 3 3z"></path>
</symbol>
</defs>
</svg>
